# xmcd
#
# Track frame offsets:
#	150
#	18777
#	44217
#	62710
#	79612
#	99122
#	121870
#	139420
#	165900
#	187205
#	205542
#	227205
#	246102
#	273482
#	292785
#
# Disc length: 4168 seconds
#
# Revision: 4
# Processed by: cddbd v1.5.2PL0 Copyright (c) Steve Scherf et al.
# Submitted via: audiograbber 1.83.01
#
DISCID=c910460f
DTITLE=Tyrone Davis - The Best Of Tyrone Davis - In The Mood
DYEAR=1996
DGENRE=Oldies
TTITLE0=In The Mood
TTITLE1=Let's Be Closer Together
TTITLE2=Close To You
TTITLE3=Leave Well Enough Alone
TTITLE4=Give It Up (Turn It Loose)
TTITLE5=I Got Carried Away
TTITLE6=I Can't Wait
TTITLE7=This I Swear
TTITLE8=Ain't Nothing I Can Do
TTITLE9=How Sweet It Is (To Be Loved By You)
TTITLE10=Get On Up  (Disco Single Version)
TTITLE11=Heart Failure  (Single Version)
TTITLE12=Be With Me  (Single Version)
TTITLE13=Can't You Tell It's Me
TTITLE14=Beware, Beware
EXTD=
EXTT0=
EXTT1=
EXTT2=
EXTT3=
EXTT4=
EXTT5=
EXTT6=
EXTT7=
EXTT8=
EXTT9=
EXTT10=
EXTT11=
EXTT12=
EXTT13=
EXTT14=
PLAYORDER=
